# xmcd
#
# Track frame offsets:
#	150
#	15025
#	37309
#	64543
#	79398
#	100367
#	115821
#	128841
#	144294
#	165473
#	178340
#	192362
#	224055
#	243275
#
# Disc length: 3307 seconds
#
# Revision: 0
# Processed by: cddbd v1.5.1PL0 Copyright (c) Steve Scherf et al.
# Submitted via: dBpowerAMP V4.0
#
DISCID=c40ce90e
DTITLE=Barbecue Bob and the Spareribs - Pass The Biscuits
DYEAR=1999
DGENRE=Blues
TTITLE0=Get It While The Gettin' is Good
TTITLE1=Turn Your Lamp Down Low
TTITLE2=A Bullet For You
TTITLE3=Too Bored To Live, Too Dumb To Die
TTITLE4=My Home is a Prison
TTITLE5=High Cotton
TTITLE6=Hot Biscuit
TTITLE7=Gorillacillin
TTITLE8=Meet Me After Midnight
TTITLE9=One Step Closer
TTITLE10=Ass, Gas or Grass
TTITLE11=My Baby's Sweeter
TTITLE12=The Backslider
TTITLE13=Barbecue Bob and the Spareribs
EXTD=
EXTT0=
EXTT1=
EXTT2=
EXTT3=
EXTT4=
EXTT5=
EXTT6=
EXTT7=
EXTT8=
EXTT9=
EXTT10=
EXTT11=
EXTT12=
EXTT13=
PLAYORDER=
